<svg width="39" height="39" overflow="visible" style="display: block;" viewBox="0 0 39 39" fill="none" xmlns="http://www.w3.org/2000/svg">
<g id="Group 1">
<path id="Vector" d="M33.1438 15.7711C33.1526 18.8855 31.8578 21.8791 29.537 24.1099L31.5554 26C33.1109 24.5034 34.3076 22.7134 35.0658 20.7494C35.824 18.7854 36.1262 16.6925 35.9522 14.6105C35.7782 12.5284 35.1321 10.5051 34.0569 8.67539C32.9817 6.84572 31.5021 5.25181 29.717 4L28 6.14021C29.6027 7.25633 30.9032 8.7093 31.7966 10.3821C32.69 12.0549 33.1515 13.9008 33.1438 15.7711Z" fill="var(--fill-0, #1566D1)"/>
<path id="Vector_2" d="M26.4643 15.3214C26.4618 16.7447 26.0234 18.133 25.2079 19.2994L27.1955 21.2884C28.7118 19.3424 29.4319 16.8928 29.21 14.4358C28.9881 11.9788 27.8408 9.69785 26.0005 8.05489L24.1424 10.1303C24.8729 10.7835 25.4572 11.5835 25.8573 12.478C26.2575 13.3726 26.4643 14.3415 26.4643 15.3214ZM39 37.0305L1.9695 0L0 1.9695L5.1675 7.137C3.1018 10.3898 2.34013 14.3025 3.03479 18.0927C3.72946 21.8829 5.82925 25.2712 8.91429 27.58L10.5857 25.3514C8.14816 23.5292 6.45955 20.8799 5.83687 17.9009C5.21419 14.9218 5.70027 11.818 7.20386 9.17196L10.264 12.2321C9.65387 14.0363 9.58792 15.98 10.0743 17.8214C10.5607 19.6628 11.578 21.3204 12.9995 22.588L14.8576 20.5126C14.1271 19.8594 13.5428 19.0593 13.1427 18.1648C12.7426 17.2703 12.5357 16.3014 12.5357 15.3214C12.5404 15.0671 12.559 14.8132 12.5914 14.5609L18.1071 20.0766V39H20.8929V22.8624L37.0305 39L39 37.0305Z" fill="var(--fill-0, #1566D1)"/>
</g>
</svg>
