<svg width="50" height="31.2" overflow="visible" style="display: block;" viewBox="0 0 50 31.2" fill="none" xmlns="http://www.w3.org/2000/svg">
<g id="Group">
<path id="Vector" d="M25 10.9L29.7 20.3V27.35C29.7 27.9733 29.9476 28.571 30.3883 29.0117C30.829 29.4524 31.4267 29.7 32.05 29.7H36.75C37.3733 29.7 37.971 29.4524 38.4117 29.0117C38.8524 28.571 39.1 27.9733 39.1 27.35V20.3C39.1 15.3139 37.1193 10.5321 33.5936 7.00639C30.0679 3.48071 25.2861 1.5 20.3 1.5C15.3139 1.5 10.5321 3.48071 7.00639 7.00639C3.48071 10.5321 1.5 15.3139 1.5 20.3V27.35C1.5 27.9733 1.74759 28.571 2.1883 29.0117C2.62901 29.4524 3.22674 29.7 3.85 29.7H8.55C9.17326 29.7 9.77099 29.4524 10.2117 29.0117C10.6524 28.571 10.9 27.9733 10.9 27.35V20.3L15.6 10.9M25 10.9H15.6M25 10.9L32.473 5.965M15.6 10.9L8.127 5.965" stroke="var(--stroke-0, #1566D1)" stroke-width="3" stroke-linecap="round" stroke-linejoin="round"/>
<path id="Vector_2" d="M36.5855 10.9003H43.8C45.0465 10.9003 46.242 11.3955 47.1234 12.2769C48.0048 13.1583 48.5 14.3538 48.5 15.6003C48.5 16.8468 48.0048 18.0423 47.1234 18.9237C46.242 19.8051 45.0465 20.3003 43.8 20.3003H1.5" stroke="var(--stroke-0, #1566D1)" stroke-width="3" stroke-linecap="round" stroke-linejoin="round"/>
</g>
</svg>
