<svg width="36" height="37" overflow="visible" style="display: block;" viewBox="0 0 36 37" fill="none" xmlns="http://www.w3.org/2000/svg">
<g id="Group 2">
<path id="Vector" d="M20 26.5C20 27.163 19.7366 27.7989 19.2678 28.2678C18.7989 28.7366 18.163 29 17.5 29C16.837 29 16.2011 28.7366 15.7322 28.2678C15.2634 27.7989 15 27.163 15 26.5C15 25.837 15.2634 25.2011 15.7322 24.7322C16.2011 24.2634 16.837 24 17.5 24C18.163 24 18.7989 24.2634 19.2678 24.7322C19.7366 25.2011 20 25.837 20 26.5Z" fill="var(--fill-0, #1566D1)"/>
<path id="Vector_2" d="M22.0234 0L27.4749 7.72596L31.0697 6.48627L34.3509 16.194H36V37H0V16.194H0.874286V16.1767L1.98514 16.1871L22.0234 0ZM13.5377 16.194H30.7286L28.9509 10.9353L26.3417 11.7797L13.5377 16.194ZM10.8669 13.4493L24.0857 8.89456L21.336 4.99344L10.8669 13.4493ZM6.85714 19.6617H3.42857V23.1293C4.33789 23.1293 5.20996 22.764 5.85294 22.1137C6.49592 21.4634 6.85714 20.5814 6.85714 19.6617ZM24 26.597C24 25.8001 23.8448 25.011 23.5433 24.2747C23.2417 23.5385 22.7998 22.8695 22.2426 22.306C21.6855 21.7425 21.0241 21.2955 20.2961 20.9905C19.5681 20.6855 18.7879 20.5286 18 20.5286C17.2121 20.5286 16.4319 20.6855 15.7039 20.9905C14.9759 21.2955 14.3145 21.7425 13.7574 22.306C13.2002 22.8695 12.7583 23.5385 12.4567 24.2747C12.1552 25.011 12 25.8001 12 26.597C12 28.2064 12.6321 29.75 13.7574 30.888C14.8826 32.0261 16.4087 32.6654 18 32.6654C19.5913 32.6654 21.1174 32.0261 22.2426 30.888C23.3679 29.75 24 28.2064 24 26.597ZM32.5714 33.5323V30.0647C31.6621 30.0647 30.79 30.43 30.1471 31.0803C29.5041 31.7306 29.1429 32.6127 29.1429 33.5323H32.5714ZM29.1429 19.6617C29.1429 20.5814 29.5041 21.4634 30.1471 22.1137C30.79 22.764 31.6621 23.1293 32.5714 23.1293V19.6617H29.1429ZM3.42857 33.5323H6.85714C6.85714 32.6127 6.49592 31.7306 5.85294 31.0803C5.20996 30.43 4.33789 30.0647 3.42857 30.0647V33.5323Z" fill="var(--fill-0, #1566D1)"/>
</g>
</svg>
