<svg preserveAspectRatio="none" width="100%" height="100%" overflow="visible" style="display: block;" viewBox="0 0 24 24" fill="none" xmlns="http://www.w3.org/2000/svg">
<g id="Frame">
<path id="Vector" d="M12 3C16.9707 3 21 7.0293 21 12C21 16.9707 16.9707 21 12 21C7.0293 21 3 16.9707 3 12C3 7.0293 7.0293 3 12 3ZM12 4.8C10.0904 4.8 8.25909 5.55857 6.90883 6.90883C5.55857 8.25909 4.8 10.0904 4.8 12C4.8 13.9096 5.55857 15.7409 6.90883 17.0912C8.25909 18.4414 10.0904 19.2 12 19.2C13.9096 19.2 15.7409 18.4414 17.0912 17.0912C18.4414 15.7409 19.2 13.9096 19.2 12C19.2 10.0904 18.4414 8.25909 17.0912 6.90883C15.7409 5.55857 13.9096 4.8 12 4.8ZM12 6.6C12.2204 6.60003 12.4332 6.68096 12.5979 6.82744C12.7627 6.97393 12.8679 7.17577 12.8937 7.3947L12.9 7.5V11.6274L15.3363 14.0637C15.4977 14.2257 15.5914 14.443 15.5984 14.6715C15.6054 14.9001 15.5251 15.1227 15.3739 15.2943C15.2226 15.4658 15.0118 15.5733 14.7842 15.595C14.5565 15.6166 14.3292 15.5509 14.1483 15.411L14.0637 15.3363L11.3637 12.6363C11.2238 12.4963 11.134 12.3141 11.1081 12.1179L11.1 12V7.5C11.1 7.26131 11.1948 7.03239 11.3636 6.8636C11.5324 6.69482 11.7613 6.6 12 6.6Z" fill="var(--fill-0, black)"/>
</g>
</svg>
