<svg preserveAspectRatio="none" width="100%" height="100%" overflow="visible" style="display: block;" viewBox="0 0 24 24" fill="none" xmlns="http://www.w3.org/2000/svg">
<g id="Frame">
<path id="Vector" d="M10.5 22C9.25 22 8.07933 21.7667 6.988 21.3C5.89667 20.8333 4.94233 20.1917 4.125 19.375C3.30767 18.5583 2.666 17.604 2.2 16.512C1.734 15.42 1.50067 14.2493 1.5 13C1.49933 11.7507 1.73267 10.58 2.2 9.488C2.66733 8.396 3.309 7.44167 4.125 6.625C4.941 5.80833 5.89533 5.16667 6.988 4.7C8.08067 4.23333 9.25133 4 10.5 4C10.85 4 11.1877 4.021 11.513 4.063C11.8383 4.105 12.1673 4.16733 12.5 4.25V6.3C12.1667 6.2 11.8377 6.125 11.513 6.075C11.1883 6.025 10.8507 6 10.5 6C8.53333 6 6.875 6.675 5.525 8.025C4.175 9.375 3.5 11.0333 3.5 13C3.5 14.9667 4.175 16.625 5.525 17.975C6.875 19.325 8.53333 20 10.5 20C12.4667 20 14.125 19.325 15.475 17.975C16.825 16.625 17.5 14.9667 17.5 13C17.5 12.8167 17.4917 12.65 17.475 12.5C17.4583 12.35 17.4333 12.1833 17.4 12H19.45C19.4833 12.1833 19.5 12.35 19.5 12.5V13C19.5 14.25 19.2667 15.421 18.8 16.513C18.3333 17.605 17.6917 18.559 16.875 19.375C16.0583 20.191 15.104 20.8327 14.012 21.3C12.92 21.7673 11.7493 22.0007 10.5 22ZM13.3 17.2L9.5 13.4V8H11.5V12.6L14.7 15.8L13.3 17.2ZM17.5 10V7H14.5V5H17.5V2H19.5V5H22.5V7H19.5V10H17.5Z" fill="var(--fill-0, black)"/>
</g>
</svg>
