<svg preserveAspectRatio="none" width="100%" height="100%" overflow="visible" style="display: block;" viewBox="0 0 44.7898 67.2901" fill="none" xmlns="http://www.w3.org/2000/svg">
<path id="Arrow" d="M33.4405 0.673296C33.6211 0.151631 34.1902 -0.125276 34.712 0.0551322C35.2339 0.235661 35.5106 0.805647 35.3301 1.32759C34.8846 2.61512 33.4422 5.08421 30.8799 7.9438C28.296 10.8274 24.5265 14.1609 19.3653 17.1499C11.7825 21.5412 6.28431 25.2569 2.99027 30.6225C1.83594 32.503 1.7748 34.9283 2.37504 37.145C2.47578 37.5166 2.73025 37.8405 3.22465 38.1362C3.70023 38.4205 4.34741 38.6439 5.14066 38.8237C5.98523 37.1788 7.15481 35.7815 8.77934 34.9038C11.2543 33.5666 14.2623 32.6085 17.126 33.2524C17.7881 33.4013 18.4436 33.6276 18.9971 33.9624C19.5494 34.2965 20.0656 34.7808 20.3164 35.4643C20.7603 36.6745 20.3918 38.4096 18.9512 39.3696C16.5874 40.9445 13.8121 42.0453 10.8135 41.603C9.94089 41.4742 8.9765 41.3827 7.94926 41.27C7.41785 41.2117 6.87344 41.1473 6.335 41.0698C6.14348 41.5848 5.97347 42.1306 5.82523 42.7036C5.09997 45.5071 4.92553 48.7659 4.96195 51.6987C4.97273 52.5617 5.33176 53.3625 5.96586 54.143C6.60702 54.9321 7.48874 55.6494 8.44535 56.3217C9.43142 57.0148 10.5824 57.4474 11.7911 57.5952C15.4352 58.0407 20.0023 58.2753 24.4532 58.4848C28.8777 58.6931 33.2031 58.8771 36.2871 59.228C37.0618 59.3161 37.8983 59.4916 38.6856 59.893C39.0659 60.0869 39.4484 60.3221 39.8467 60.6206C38.9481 59.4243 38.4804 58.7739 37.9268 58.0131C37.0912 56.8649 36.0857 55.5082 35.5684 54.8364C35.4401 54.6698 35.3448 54.5497 35.2745 54.4633C35.2434 54.4252 35.2187 54.3953 35.1993 54.3725C34.9328 54.1929 34.7569 53.8889 34.7569 53.5434C34.7569 52.9912 35.2046 52.5435 35.7569 52.5434C35.7599 52.5434 35.8674 52.5406 35.9952 52.5698C36.1273 52.6 36.2353 52.6512 36.3174 52.7016C36.4535 52.7852 36.5534 52.8885 36.6045 52.9428C36.7234 53.069 36.8925 53.2779 37.1534 53.6167C37.6879 54.3108 38.706 55.6848 39.544 56.8364C40.3794 57.9844 41.0052 58.8697 43.2315 61.771C43.3431 61.9164 43.4071 62.0828 43.4288 62.2524C43.4909 62.2414 43.5532 62.2312 43.6153 62.2202C44.1591 62.1239 44.6782 62.4869 44.7745 63.0307C44.8704 63.5744 44.5075 64.0927 43.9639 64.1889C41.5067 64.6237 39.1072 65.0492 37.3164 65.5131C35.5218 65.9781 34.4706 66.448 32.1202 67.2377C31.5967 67.4136 31.0295 67.1323 30.8536 66.6088C30.6777 66.0854 30.96 65.5182 31.4834 65.3422C33.6719 64.6069 34.9351 64.0645 36.8145 63.5776C37.621 63.3686 38.5386 63.1693 39.5147 62.9751C38.8371 62.304 38.2809 61.932 37.7774 61.6752C37.2862 61.4248 36.7118 61.2894 36.0606 61.2153C33.06 60.8739 28.8207 60.6929 24.3584 60.4829C19.9224 60.274 15.2792 60.0367 11.5479 59.5805C10.0253 59.3943 8.56017 58.8477 7.29496 57.9585C6.28638 57.2496 5.22852 56.407 4.4141 55.4047C3.5926 54.3936 2.97998 53.1697 2.96195 51.7231C2.92471 48.7224 3.09818 45.2584 3.88871 42.2026C4.0212 41.6905 4.17394 41.1846 4.34672 40.6899C3.57666 40.4944 2.8328 40.2317 2.19926 39.853C1.39455 39.3719 0.716662 38.6728 0.444375 37.6674C-0.2441 35.1247 -0.252642 32.0808 1.2852 29.5756C4.87352 23.7307 10.7993 19.7998 18.3633 15.4194C23.3316 12.5421 26.939 9.34587 29.3907 6.60982C31.8633 3.8503 33.1165 1.60964 33.4405 0.673296ZM16.6875 35.2036C14.5119 34.7144 12.0288 35.4219 9.73051 36.6635C8.71489 37.2123 7.89256 38.0714 7.23344 39.1713C7.54007 39.2099 7.85187 39.2481 8.16703 39.2827C9.14997 39.3905 10.1838 39.4885 11.1055 39.6245C13.4218 39.966 15.6928 39.1373 17.8418 37.7055C18.4676 37.2886 18.5844 36.5481 18.4395 36.1528C18.3957 36.0337 18.2731 35.8615 17.962 35.6733C17.6519 35.4858 17.2188 35.323 16.6875 35.2036Z" fill="var(--fill-0, #898989)"/>
</svg>
