<svg width="2744" height="2732" viewBox="0 0 2744 2732" fill="none" xmlns="http://www.w3.org/2000/svg">
<path d="M13.3187 0.585205C14.1001 -0.195557 15.3664 -0.195068 16.1472 0.586426L28.8704 13.3188C29.6512 14.1003 29.6507 15.3665 28.8694 16.1472C28.088 16.928 26.8217 16.9277 26.041 16.1462L14.7314 4.82837L3.41354 16.1379C2.6322 16.9187 1.36587 16.9182 0.585109 16.137C-0.195654 15.3557 -0.195189 14.0894 0.586145 13.3086L13.3187 0.585205ZM13.7326 2732L11.7326 2732L12.7324 1.99927L14.7324 2L16.7324 2.00073L15.7326 2732L13.7326 2732Z" fill="#9E9E9E"/>
<line x1="263.232" y1="2" x2="263.232" y2="2732" stroke="#9E9E9E"/>
<line x1="511.232" y1="2" x2="511.232" y2="2732" stroke="#9E9E9E"/>
<line x1="759.233" y1="2" x2="759.233" y2="2732" stroke="#9E9E9E"/>
<line x1="1007.23" y1="2" x2="1007.23" y2="2732" stroke="#9E9E9E"/>
<line x1="1255.23" y1="2" x2="1255.23" y2="2732" stroke="#9E9E9E"/>
<line x1="1503.23" y1="2" x2="1503.23" y2="2732" stroke="#9E9E9E"/>
<line x1="1751.23" y1="2" x2="1751.23" y2="2732" stroke="#9E9E9E"/>
<line x1="1999.23" y1="2" x2="1999.23" y2="2732" stroke="#9E9E9E"/>
<line x1="2247.23" y1="2" x2="2247.23" y2="2732" stroke="#9E9E9E"/>
<line x1="2495.23" y1="2" x2="2495.23" y2="2732" stroke="#9E9E9E"/>
<line x1="2743.23" y1="2" x2="2743.23" y2="2732" stroke="#9E9E9E"/>
</svg>
