<svg width="2979" height="2744" viewBox="0 0 2979 2744" fill="none" xmlns="http://www.w3.org/2000/svg">
<path d="M2978.41 2730.42C2979.2 2729.64 2979.2 2728.37 2978.41 2727.59L2965.69 2714.86C2964.91 2714.08 2963.64 2714.08 2962.86 2714.86C2962.08 2715.64 2962.08 2716.91 2962.86 2717.69L2974.17 2729L2962.86 2740.32C2962.08 2741.1 2962.08 2742.36 2962.86 2743.14C2963.64 2743.93 2964.91 2743.93 2965.69 2743.14L2978.41 2730.42ZM0.000119245 2729V2731H2977V2729V2727H0.000119245V2729Z" fill="#9E9E9E"/>
<line x1="0.000119245" y1="2480.5" x2="2977" y2="2480.5" stroke="#9E9E9E"/>
<line x1="0.000119245" y1="2232.5" x2="2977" y2="2232.5" stroke="#9E9E9E"/>
<line x1="0.000119245" y1="1984.5" x2="2977" y2="1984.5" stroke="#9E9E9E"/>
<line x1="0.000119245" y1="1736.5" x2="2977" y2="1736.5" stroke="#9E9E9E"/>
<line x1="0.000119245" y1="1488.5" x2="2977" y2="1488.5" stroke="#9E9E9E"/>
<line x1="0.000119245" y1="1240.5" x2="2977" y2="1240.5" stroke="#9E9E9E"/>
<line x1="0.000119245" y1="992.501" x2="2977" y2="992.501" stroke="#9E9E9E"/>
<line x1="0.000119245" y1="744.501" x2="2977" y2="744.501" stroke="#9E9E9E"/>
<line x1="0.000119245" y1="496.5" x2="2977" y2="496.5" stroke="#9E9E9E"/>
<line x1="0.000119245" y1="248.5" x2="2977" y2="248.5" stroke="#9E9E9E"/>
<line x1="0.000119245" y1="0.5" x2="2977" y2="0.5" stroke="#9E9E9E"/>
</svg>
