<svg width="2608" height="2509" viewBox="0 0 2608 2509" fill="none" xmlns="http://www.w3.org/2000/svg">
<g filter="url(#filter0_f_2284_10462)">
<path d="M1094.5 2266.16C659 2218.66 620 2028.66 200.5 1941.66C200.5 1617.16 414 1625.16 572.5 1577.66C731 1530.16 984 1530.16 1158 1490.66C1332 1451.16 1411 1308.66 1450.5 1142.66C1490 976.66 1411 857.66 1316 707.16C1221 556.66 1316 406.66 1411 335.16C1506 263.66 1751.5 208.661 2084 200.661C2416.5 192.661 2368.5 485.661 2400.5 604.161C2432.5 722.661 2337 833.661 2234 984.161C2131 1134.66 2028.5 1356.16 2020.5 1577.66C2012.5 1799.16 2186.5 2020.66 2084 2187.16C1981.5 2353.66 1530 2313.66 1094.5 2266.16Z" fill="#D420C5" fill-opacity="0.15"/>
<path d="M1094.5 2266.16C659 2218.66 620 2028.66 200.5 1941.66C200.5 1617.16 414 1625.16 572.5 1577.66C731 1530.16 984 1530.16 1158 1490.66C1332 1451.16 1411 1308.66 1450.5 1142.66C1490 976.66 1411 857.66 1316 707.16C1221 556.66 1316 406.66 1411 335.16C1506 263.66 1751.5 208.661 2084 200.661C2416.5 192.661 2368.5 485.661 2400.5 604.161C2432.5 722.661 2337 833.661 2234 984.161C2131 1134.66 2028.5 1356.16 2020.5 1577.66C2012.5 1799.16 2186.5 2020.66 2084 2187.16C1981.5 2353.66 1530 2313.66 1094.5 2266.16Z" stroke="black"/>
</g>
<defs>
<filter id="filter0_f_2284_10462" x="0" y="0" width="2607.28" height="2508.1" filterUnits="userSpaceOnUse" color-interpolation-filters="sRGB">
<feFlood flood-opacity="0" result="BackgroundImageFix"/>
<feBlend mode="normal" in="SourceGraphic" in2="BackgroundImageFix" result="shape"/>
<feGaussianBlur stdDeviation="100" result="effect1_foregroundBlur_2284_10462"/>
</filter>
</defs>
</svg>
