<svg preserveAspectRatio="none" width="100%" height="100%" overflow="visible" style="display: block;" viewBox="0 0 67.5553 68.8299" fill="none" xmlns="http://www.w3.org/2000/svg">
<g id="Progressive adoption">
<path id="Vector" d="M19.6596 3.20888L16.2291 16.4138L19.8971 22.3249L21.9951 18.4458L26.943 22.5228L29.252 15.1999L19.6596 3.20888ZM42.0505 8.97483L37.8019 15.3583L39.2137 18.7228L42.1033 15.8597L44.4915 21.5069L45.8505 18.6437L42.0505 8.97483ZM31.0464 17.443L28.1568 26.5867L22.7076 22.1138L20.0555 27.0485L15.4111 19.5673L3.74985 64.3491H20.4381C26.4548 62.106 38.2901 56.8678 38.5408 50.3234C38.7651 44.0165 24.1721 44.5971 23.9214 38.2901C23.7235 33.1311 35.0707 27.5367 35.0707 27.5367C35.0707 27.5367 27.9325 33.2499 28.8166 36.9047C30.5186 43.8977 45.3887 40.5464 47.7109 47.3679C49.4262 52.4081 43.2908 61.1296 40.8235 64.3491H63.8081L47.038 21.6784L44.3859 27.3124L41.2853 20.0027L38.3693 22.8923L36.2186 17.7333L33.9756 21.0978L31.0464 17.443Z" fill="var(--fill-0, #1566D1)"/>
</g>
</svg>
