<svg preserveAspectRatio="none" width="100%" height="100%" overflow="visible" style="display: block;" viewBox="0 0 67.5553 68.8299" fill="none" xmlns="http://www.w3.org/2000/svg">
<g id="Foundation-first">
<path id="Vector" d="M8.44441 36.5925H14.074V30.9628H8.44441V36.5925ZM8.44441 47.8517H14.074V42.2221H8.44441V47.8517ZM8.44441 25.3332H14.074V19.7036H8.44441V25.3332ZM19.7036 36.5925H59.1109V30.9628H19.7036V36.5925ZM19.7036 47.8517H59.1109V42.2221H19.7036V47.8517ZM19.7036 19.7036V25.3332H59.1109V19.7036H19.7036ZM8.44441 36.5925H14.074V30.9628H8.44441V36.5925ZM8.44441 47.8517H14.074V42.2221H8.44441V47.8517ZM8.44441 25.3332H14.074V19.7036H8.44441V25.3332ZM19.7036 36.5925H59.1109V30.9628H19.7036V36.5925ZM19.7036 47.8517H59.1109V42.2221H19.7036V47.8517ZM19.7036 19.7036V25.3332H59.1109V19.7036H19.7036Z" fill="var(--fill-0, #1566D1)"/>
</g>
</svg>
