<svg preserveAspectRatio="none" width="100%" height="100%" overflow="visible" style="display: block;" viewBox="0 0 63.8713 65.0764" fill="none" xmlns="http://www.w3.org/2000/svg">
<g id="Simplify, don&#226;&#128;&#153;t redesign">
<path id="Vector" d="M46.1211 9.25335C45.7379 10.7594 45.8678 12.3503 46.4903 13.7742L28.9537 31.9356H17.4648C13.9319 31.9356 11.0298 33.724 9.05575 36.2629C7.09171 38.7878 5.98793 42.1091 5.98793 45.4105C5.98793 45.8075 6.14565 46.1883 6.42639 46.469C6.70713 46.7498 7.08789 46.9075 7.48492 46.9075C7.88194 46.9075 8.26271 46.7498 8.54345 46.469C8.82418 46.1883 8.9819 45.8075 8.9819 45.4105C8.9819 42.7419 9.88408 40.0752 11.417 38.1052C12.9419 36.1452 15.0297 34.9316 17.4648 34.9316H26.0635L4.40912 57.3604C3.85024 57.9393 3.85024 58.8814 4.42908 59.4422C5.00791 60.0211 5.93005 60.0211 6.53084 59.4622L31.76 34.9316H43.4125C51.8655 34.9316 58.9931 27.9676 58.8814 19.4428C58.8672 18.1026 58.6422 16.773 58.2147 15.5028C58.8189 14.8031 59.2781 13.9905 59.5659 13.112C59.8537 12.2335 59.9643 11.3066 59.8913 10.3851C59.8182 9.46359 59.563 8.56572 59.1404 7.74355C58.7178 6.92137 58.1363 6.19125 57.4294 5.59549C56.7226 4.99972 55.9045 4.55017 55.0227 4.27288C54.1408 3.99558 53.2127 3.89607 52.2921 3.9801C51.3715 4.06413 50.4768 4.33004 49.6597 4.76241C48.8426 5.19478 48.1195 5.78501 47.5322 6.4989C46.1886 6.17818 44.8137 6.00682 43.4325 5.98793C37.0853 5.90011 31.3748 9.17751 29.0515 14.906C28.9775 15.0881 28.9402 15.2831 28.9417 15.4797C28.9431 15.6763 28.9832 15.8706 29.0598 16.0517C29.2144 16.4174 29.5079 16.7068 29.8758 16.856C30.2437 17.0053 30.6559 17.0023 31.0216 16.8477C31.2026 16.7712 31.3669 16.6597 31.5049 16.5197C31.6429 16.3797 31.752 16.2139 31.8259 16.0317C33.6143 11.6206 38.0813 8.90805 43.3926 8.9819C44.3293 8.99521 45.2388 9.08702 46.1211 9.25335ZM49.9334 10.5228C51.5481 11.3332 52.9254 12.4389 53.9453 13.7802C53.4561 13.964 52.9274 14.0165 52.4116 13.9325C51.8959 13.8486 51.4111 13.6311 51.0054 13.3017C50.5998 12.9724 50.2874 12.5425 50.0993 12.055C49.9112 11.5675 49.854 11.0393 49.9334 10.5228ZM51.8695 8.16155C52.1902 8.04446 52.5315 7.98458 52.8934 7.98192C53.3206 7.98177 53.7428 8.07302 54.1318 8.24954C54.5207 8.42607 54.8674 8.68378 55.1486 9.00537C55.4297 9.32697 55.6388 9.70499 55.7617 10.1141C55.8847 10.5231 55.9187 10.9538 55.8614 11.3771C54.7341 10.0754 53.3819 8.98491 51.8695 8.16155ZM55.6439 17.4009C55.7942 18.0583 55.8754 18.7522 55.8874 19.4827C55.9752 26.285 50.2487 31.9376 43.4125 31.9376H34.8418L49.9034 17.2932C50.8096 17.7243 51.8236 17.9638 52.8934 17.9638C53.8714 17.9638 54.7996 17.7642 55.6439 17.4009Z" fill="var(--fill-0, #1566D1)"/>
</g>
</svg>
